<svg width="190" height="254" viewBox="0 0 190 254" fill="none" xmlns="http://www.w3.org/2000/svg">
<g filter="url(#filter0_d)">
<path d="M61.5445 61.8348C78.966 61.8348 93.0889 47.8057 93.0889 30.4999C93.0889 13.1942 78.966 -0.834961 61.5445 -0.834961C44.1229 -0.834961 30 13.1942 30 30.4999C30 47.8057 44.1229 61.8348 61.5445 61.8348Z" fill="#7798CF"/>
</g>
<g filter="url(#filter1_d)">
<path d="M61.5445 51.3897C73.1588 51.3897 82.5741 42.037 82.5741 30.4998C82.5741 18.9626 73.1588 9.60986 61.5445 9.60986C49.9301 9.60986 40.5148 18.9626 40.5148 30.4998C40.5148 42.037 49.9301 51.3897 61.5445 51.3897Z" fill="#D3E0E6"/>
</g>
<path d="M61.5445 40.9449C67.3517 40.9449 72.0593 36.2685 72.0593 30.4999C72.0593 24.7313 67.3517 20.0549 61.5445 20.0549C55.7373 20.0549 51.0297 24.7313 51.0297 30.4999C51.0297 36.2685 55.7373 40.9449 61.5445 40.9449Z" fill="#FAFAFA"/>
<defs>
<filter id="filter0_d" x="-66" y="-0.834961" width="255.089" height="254.67" filterUnits="userSpaceOnUse" color-interpolation-filters="sRGB">
<feFlood flood-opacity="0" result="BackgroundImageFix"/>
<feColorMatrix in="SourceAlpha" type="matrix" values="0 0 0 0 0 0 0 0 0 0 0 0 0 0 0 0 0 0 127 0" result="hardAlpha"/>
<feOffset dy="96"/>
<feGaussianBlur stdDeviation="48"/>
<feColorMatrix type="matrix" values="0 0 0 0 0.0256 0 0 0 0 0.18944 0 0 0 0 0.64 0 0 0 0.16 0"/>
<feBlend mode="normal" in2="BackgroundImageFix" result="effect1_dropShadow"/>
<feBlend mode="normal" in="SourceGraphic" in2="effect1_dropShadow" result="shape"/>
</filter>
<filter id="filter1_d" x="-55.4852" y="9.60986" width="234.059" height="233.78" filterUnits="userSpaceOnUse" color-interpolation-filters="sRGB">
<feFlood flood-opacity="0" result="BackgroundImageFix"/>
<feColorMatrix in="SourceAlpha" type="matrix" values="0 0 0 0 0 0 0 0 0 0 0 0 0 0 0 0 0 0 127 0" result="hardAlpha"/>
<feOffset dy="96"/>
<feGaussianBlur stdDeviation="48"/>
<feColorMatrix type="matrix" values="0 0 0 0 0.0256 0 0 0 0 0.27136 0 0 0 0 0.64 0 0 0 0.16 0"/>
<feBlend mode="normal" in2="BackgroundImageFix" result="effect1_dropShadow"/>
<feBlend mode="normal" in="SourceGraphic" in2="effect1_dropShadow" result="shape"/>
</filter>
</defs>
</svg>
